<?xml version="1.0" encoding="UTF-8" standalone="no"?>
<!-- Created with Inkscape (http://www.inkscape.org/) -->

<svg
   xmlns:dc="http://purl.org/dc/elements/1.1/"
   xmlns:cc="http://creativecommons.org/ns#"
   xmlns:rdf="http://www.w3.org/1999/02/22-rdf-syntax-ns#"
   xmlns:svg="http://www.w3.org/2000/svg"
   xmlns="http://www.w3.org/2000/svg"
   xmlns:sodipodi="http://sodipodi.sourceforge.net/DTD/sodipodi-0.dtd"
   xmlns:inkscape="http://www.inkscape.org/namespaces/inkscape"
   width="11.81035mm"
   height="17.229223mm"
   viewBox="0 0 11.81035 17.229223"
   version="1.1"
   id="svg897"
   inkscape:version="0.92.3 (2405546, 2018-03-11)"
   sodipodi:docname="favicon.svg">
  <defs
     id="defs891" />
  <sodipodi:namedview
     id="base"
     pagecolor="#ffffff"
     bordercolor="#666666"
     borderopacity="1.0"
     inkscape:pageopacity="0.0"
     inkscape:pageshadow="2"
     inkscape:zoom="0.35"
     inkscape:cx="30.319602"
     inkscape:cy="-233.88045"
     inkscape:document-units="mm"
     inkscape:current-layer="layer1"
     showgrid="false"
     fit-margin-top="0"
     fit-margin-left="0"
     fit-margin-right="0"
     fit-margin-bottom="0"
     inkscape:window-width="958"
     inkscape:window-height="981"
     inkscape:window-x="-8"
     inkscape:window-y="0"
     inkscape:window-maximized="0" />
  <metadata
     id="metadata894">
    <rdf:RDF>
      <cc:Work
         rdf:about="">
        <dc:format>image/svg+xml</dc:format>
        <dc:type
           rdf:resource="http://purl.org/dc/dcmitype/StillImage" />
        <dc:title></dc:title>
      </cc:Work>
    </rdf:RDF>
  </metadata>
  <g
     inkscape:label="Layer 1"
     inkscape:groupmode="layer"
     id="layer1"
     transform="translate(169.94684,-55.552055)">
    <path
       style="fill:#f5f6f5;stroke-width:1"
       inkscape:connector-curvature="0"
       id="path2"
       d="m -165.88232,59.480863 3.6628,-0.0429 v 1.9115 h -1.8474 v 1.811301 h 1.6588 v 1.8604 h -1.7033 l 1e-5,3.874199 h -1.771 z" />
    <g
       id="g10"
       transform="matrix(1.243,0,0,1.243,-436.95233,37.340862)">
      <path
         style="fill:#6f96ec"
         inkscape:connector-curvature="0"
         id="path4"
         d="m 217.84,28.512 c -1.2703,0 -3.0266,-1.4015 -3.0318,-2.9836 -0.002,-0.80498 0,-2.9831 0,-2.9831 h 1.7532 v 2.8079 c 0,0.31669 0.30187,1.3748 1.9512,1.3748 h 2.0848 c 1.6493,0 1.9512,-1.0581 1.9512,-1.3748 v -2.8079 h 1.7532 c 0,0 0.003,2.1782 0,2.9831 -0.005,1.5821 -1.7615,2.9836 -3.0318,2.9836 z" />
      <path
         style="opacity:0.12999998;fill:#ffffff"
         inkscape:connector-curvature="0"
         id="path6"
         d="m 811.89,52.713 c 5e-4,0.4475 -8.4e-4,0.91408 0,1.252 0.0194,5.9798 6.6579,11.277 11.459,11.277 h 12.963 c 4.8011,0 11.44,-5.2976 11.459,-11.277 0.001,-0.33787 -7.5e-4,-0.80445 0,-1.252 -0.0189,5.9798 -6.6579,11.277 -11.459,11.277 h -12.963 c -4.8011,0 -11.44,-5.2976 -11.459,-11.277 z"
         transform="matrix(0.26458,0,0,0.26458,0,11.25)" />
      <path
         style="opacity:0.07999998"
         inkscape:connector-curvature="0"
         id="path8"
         d="m 214.81,22.545 c 0,0 4e-5,0.18242 0,0.23099 h 1.7534 V 22.545 Z m 7.7406,0 v 0.23099 h 1.7529 c -7e-5,-0.04857 0,-0.23099 0,-0.23099 z m -5.9872,2.8076 v 0.33021 c 0,0.31669 0.30197,1.3751 1.9513,1.3751 h 2.0846 c 1.6493,0 1.9513,-1.0584 1.9513,-1.3751 V 25.3526 c 0,0.31669 -0.30197,1.3751 -1.9513,1.3751 h -2.0846 c -1.6493,0 -1.9513,-1.0584 -1.9513,-1.3751 z" />
    </g>
    <g
       id="g18"
       transform="matrix(1.243,0,0,1.243,-436.95233,37.340862)">
      <path
         style="fill:#f5f6f5"
         inkscape:connector-curvature="0"
         id="path12"
         d="m 217.84,14.651 c -1.2703,0 -3.0266,1.3881 -3.0318,2.9702 -0.002,0.80498 0,2.3626 0,2.3626 h 1.7532 v -2.1874 c 0,-0.31669 0.30187,-1.3614 1.9512,-1.3614 h 2.0848 c 1.6493,0 1.9512,1.0447 1.9512,1.3614 v 2.1874 h 1.7532 c 0,0 0.003,-1.5576 0,-2.3626 -0.005,-1.5822 -1.7615,-2.9702 -3.0318,-2.9702 z" />
      <path
         style="opacity:0.07999998;fill:#1b1e1b"
         inkscape:connector-curvature="0"
         id="path14"
         d="m 823.35,12.855 c -4.8011,0 -11.44,5.2468 -11.459,11.227 -10e-4,0.42522 5.3e-4,0.73553 0,1.248 0.0194,-5.9798 6.6579,-11.227 11.459,-11.227 h 12.963 c 4.8011,0 11.44,5.2468 11.459,11.227 -7.9e-4,-0.51252 0.002,-0.82282 0,-1.248 -0.0189,-5.9798 -6.6579,-11.227 -11.459,-11.227 z"
         transform="matrix(0.26458,0,0,0.26458,0,11.25)" />
      <path
         style="fill:#ffffff"
         inkscape:connector-curvature="0"
         id="path16"
         d="m 218.52,16.104 c -1.6493,0 -1.9513,1.045 -1.9513,1.3617 v 0.33125 c 0,-0.31669 0.30197,-1.3617 1.9513,-1.3617 h 2.0846 c 1.6493,0 1.9513,1.045 1.9513,1.3617 V 17.4657 c 0,-0.31669 -0.30197,-1.3617 -1.9513,-1.3617 z m -3.7047,3.6484 c 8e-5,0.05473 0,0.23151 0,0.23151 h 1.7534 V 19.7524 Z m 7.7406,0 v 0.23151 h 1.7529 c 0,0 -1e-4,-0.17678 0,-0.23151 z" />
    </g>
    <path
       style="opacity:0.07999998;stroke-width:1"
       inkscape:connector-curvature="0"
       id="path20"
       d="m -164.07232,63.160863 v 0.23421 h 1.6589 v -0.23421 z" />
    <path
       style="opacity:0.07999998;stroke-width:1"
       inkscape:connector-curvature="0"
       id="path26"
       d="m -165.88232,59.440863 v 0.27667 h 3.6625 v -0.27667 z" />
    <g
       style="fill:#ffffff"
       id="g34"
       transform="translate(-402.79233,42.090862)">
      <path
         inkscape:connector-curvature="0"
         id="path28"
         d="m 238.67,22.605 v 0.32452 h 1.7028 V 22.605 Z" />
      <path
         inkscape:connector-curvature="0"
         id="path30"
         d="m 236.9,26.48 v 0.32388 h 1.7709 V 26.48 Z" />
      <path
         inkscape:connector-curvature="0"
         id="path32"
         d="m 238.72,18.933 v 0.32452 h 1.8474 V 18.933 Z" />
    </g>
  </g>
</svg>
