<?xml version="1.0" encoding="UTF-8"?>
<svg width="9.9923mm" height="9.5231mm" version="1.1" viewBox="0 0 9.9923 9.5231" xmlns="http://www.w3.org/2000/svg">
 <g transform="translate(93.985 -133.65)">
  <path d="m-89.364 133.79-2.8509 2.9441c-0.19701 0.29096 0.37285 0.77409 0.6968 0.39531 0.73251-0.73517 1.4222-1.5114 2.1212-2.2782 0.01891 2.0414-0.03031 3.8169 0.02374 5.8529 0.0038 0.44229 0.82535 0.43581 0.81994-0.0112-0.01884-1.9452-0.02306-3.8905-0.03084-5.8358 0.77648 0.78812 1.5019 1.636 2.2521 2.4408 0.33961 0.30716 0.87975-0.27948 0.50636-0.63412-0.89994-0.9494-1.8333-1.9246-2.7413-2.859-0.24472-0.2115-0.52553-0.19602-0.79716-0.0148z" fill="#26272a"/>
 </g>
</svg>
