<?xml version="1.0" encoding="UTF-8"?>
<svg width="42.337mm" height="17.228mm" version="1.1" viewBox="0 0 42.337 17.228" xmlns="http://www.w3.org/2000/svg">
 <g transform="translate(418.04 -152.31)">
  <path d="m-413.97 156.24 3.6628-0.0429v1.9115h-1.8474v1.8113h1.6588v1.8604h-1.7033l1e-5 3.8742h-1.771z" fill="#f5f6f5"/>
  <g transform="matrix(1.243 0 0 1.243 -685.04 134.1)">
   <path d="m217.84 28.512c-1.2703 0-3.0266-1.4015-3.0318-2.9836-2e-3 -0.80498 0-2.9831 0-2.9831h1.7532v2.8079c0 0.31669 0.30187 1.3748 1.9512 1.3748h2.0848c1.6493 0 1.9512-1.0581 1.9512-1.3748v-2.8079h1.7532s3e-3 2.1782 0 2.9831c-5e-3 1.5821-1.7615 2.9836-3.0318 2.9836z" fill="#6f96ec"/>
   <path transform="matrix(.26458 0 0 .26458 0 11.25)" d="m811.89 52.713c5e-4 0.4475-8.4e-4 0.91408 0 1.252 0.0194 5.9798 6.6579 11.277 11.459 11.277h12.963c4.8011 0 11.44-5.2976 11.459-11.277 1e-3 -0.33787-7.5e-4 -0.80445 0-1.252-0.0189 5.9798-6.6579 11.277-11.459 11.277h-12.963c-4.8011 0-11.44-5.2976-11.459-11.277z" fill="#fff" opacity=".13"/>
   <path d="m214.81 22.545s4e-5 0.18242 0 0.23099h1.7534v-0.23099zm7.7406 0v0.23099h1.7529c-7e-5 -0.04857 0-0.23099 0-0.23099zm-5.9872 2.8076v0.33021c0 0.31669 0.30197 1.3751 1.9513 1.3751h2.0846c1.6493 0 1.9513-1.0584 1.9513-1.3751v-0.33021c0 0.31669-0.30197 1.3751-1.9513 1.3751h-2.0846c-1.6493 0-1.9513-1.0584-1.9513-1.3751z" opacity=".08"/>
  </g>
  <g transform="matrix(1.243 0 0 1.243 -685.04 134.1)">
   <path d="m217.84 14.651c-1.2703 0-3.0266 1.3881-3.0318 2.9702-2e-3 0.80498 0 2.3626 0 2.3626h1.7532v-2.1874c0-0.31669 0.30187-1.3614 1.9512-1.3614h2.0848c1.6493 0 1.9512 1.0447 1.9512 1.3614v2.1874h1.7532s3e-3 -1.5576 0-2.3626c-5e-3 -1.5822-1.7615-2.9702-3.0318-2.9702z" fill="#f5f6f5"/>
   <path transform="matrix(.26458 0 0 .26458 0 11.25)" d="m823.35 12.855c-4.8011 0-11.44 5.2468-11.459 11.227-1e-3 0.42522 5.3e-4 0.73553 0 1.248 0.0194-5.9798 6.6579-11.227 11.459-11.227h12.963c4.8011 0 11.44 5.2468 11.459 11.227-7.9e-4 -0.51252 2e-3 -0.82282 0-1.248-0.0189-5.9798-6.6579-11.227-11.459-11.227z" fill="#1b1e1b" opacity=".08"/>
   <path d="m218.52 16.104c-1.6493 0-1.9513 1.045-1.9513 1.3617v0.33125c0-0.31669 0.30197-1.3617 1.9513-1.3617h2.0846c1.6493 0 1.9513 1.045 1.9513 1.3617v-0.33125c0-0.31669-0.30197-1.3617-1.9513-1.3617zm-3.7047 3.6484c8e-5 0.05473 0 0.23151 0 0.23151h1.7534v-0.23151zm7.7406 0v0.23151h1.7529s-1e-4 -0.17678 0-0.23151z" fill="#fff"/>
  </g>
  <path d="m-412.16 159.92v0.23421h1.6589v-0.23421z" opacity=".08"/>
  <text x="-404.75003" y="165.53993" fill="#f5f6f5" font-family="Impact" font-size="10.029px" opacity=".93" stroke-width="6.5372" style="line-height:1.25" xml:space="preserve"><tspan x="-404.75003" y="165.53993" fill="#f5f6f5" stroke-width="6.5372">ile Link</tspan></text>
  <path d="m-413.97 156.2v0.27667h3.6625v-0.27667z" opacity=".08"/>
  <g transform="translate(-650.88 138.85)" fill="#fff">
   <path d="m238.67 22.605v0.32452h1.7028v-0.32452z"/>
   <path d="m236.9 26.48v0.32388h1.7709v-0.32388z"/>
   <path d="m238.72 18.933v0.32452h1.8474v-0.32452z"/>
  </g>
 </g>
</svg>
