<?xml version="1.0" encoding="UTF-8"?>
<svg width="44.189mm" height="17.228mm" version="1.1" viewBox="0 0 44.189 17.228" xmlns="http://www.w3.org/2000/svg">
 <g transform="translate(-117.93 -243.03)">
  <g transform="matrix(1.243 0 0 1.243 -149.07 224.82)">
   <path d="m217.84 28.512c-1.2703 0-3.0266-1.4015-3.0318-2.9836-2e-3 -0.80498 0-2.9831 0-2.9831h1.7532v2.8079c0 0.31669 0.30187 1.3748 1.9512 1.3748h2.0848c1.6493 0 1.9512-1.0581 1.9512-1.3748v-2.8079h1.7532s3e-3 2.1782 0 2.9831c-5e-3 1.5821-1.7615 2.9836-3.0318 2.9836z" fill="#f7bf64"/>
   <path transform="matrix(.26458 0 0 .26458 0 11.25)" d="m811.89 52.713c5e-4 0.4475-8.4e-4 0.91408 0 1.252 0.0194 5.9798 6.6579 11.277 11.459 11.277h12.963c4.8011 0 11.44-5.2976 11.459-11.277 1e-3 -0.33787-7.5e-4 -0.80445 0-1.252-0.0189 5.9798-6.6579 11.277-11.459 11.277h-12.963c-4.8011 0-11.44-5.2976-11.459-11.277z" fill="#fff" opacity=".13"/>
   <path d="m214.81 22.545s4e-5 0.18242 0 0.23099h1.7534v-0.23099zm7.7406 0v0.23099h1.7529c-7e-5 -0.04857 0-0.23099 0-0.23099zm-5.9872 2.8076v0.33021c0 0.31669 0.30197 1.3751 1.9513 1.3751h2.0846c1.6493 0 1.9513-1.0584 1.9513-1.3751v-0.33021c0 0.31669-0.30197 1.3751-1.9513 1.3751h-2.0846c-1.6493 0-1.9513-1.0584-1.9513-1.3751z" opacity=".08"/>
  </g>
  <g transform="matrix(1.243 0 0 1.243 -149.07 224.82)">
   <path d="m217.84 14.651c-1.2703 0-3.0266 1.3881-3.0318 2.9702-2e-3 0.80498 0 2.3626 0 2.3626h1.7532v-2.1874c0-0.31669 0.30187-1.3614 1.9512-1.3614h2.0848c1.6493 0 1.9512 1.0447 1.9512 1.3614v2.1874h1.7532s3e-3 -1.5576 0-2.3626c-5e-3 -1.5822-1.7615-2.9702-3.0318-2.9702z" fill="#f5f6f5"/>
   <path transform="matrix(.26458 0 0 .26458 0 11.25)" d="m823.35 12.855c-4.8011 0-11.44 5.2468-11.459 11.227-1e-3 0.42522 5.3e-4 0.73553 0 1.248 0.0194-5.9798 6.6579-11.227 11.459-11.227h12.963c4.8011 0 11.44 5.2468 11.459 11.227-7.9e-4 -0.51252 2e-3 -0.82282 0-1.248-0.0189-5.9798-6.6579-11.227-11.459-11.227z" fill="#1b1e1b" opacity=".08"/>
   <path d="m218.52 16.104c-1.6493 0-1.9513 1.045-1.9513 1.3617v0.33125c0-0.31669 0.30197-1.3617 1.9513-1.3617h2.0846c1.6493 0 1.9513 1.045 1.9513 1.3617v-0.33125c0-0.31669-0.30197-1.3617-1.9513-1.3617zm-3.7047 3.6484c8e-5 0.05473 0 0.23151 0 0.23151h1.7534v-0.23151zm7.7406 0v0.23151h1.7529s-1e-4 -0.17678 0-0.23151z" fill="#fff"/>
  </g>
  <g transform="matrix(.94405 0 0 .94405 6.9284 14.08)">
   <g transform="matrix(1.243 0 0 1.243 -174.54 224.82)">
    <path d="m238.57 23.766 1.46-2.9937h1.3347v1.4969h-1.3702l-5e-5 3.1169h-1.4245z" fill="#f5f6f5"/>
    <path d="m240 22.008v0.26109h1.3699v-0.26109zm-1.4247 3.1171v0.26057h1.4247v-0.26057z" fill="#fff"/>
    <path d="m240.03 20.772-1.4599 2.9936v0.33073l1.5271-3.1359h1.2671v-0.18843z" opacity=".08"/>
   </g>
   <path d="m125.66 246.91-3.6625 0.043v7.4008l1.8152-3.721v-1.8113h1.8473z" fill="#f7bf64" opacity=".313"/>
   <path d="m125.66 246.91-3.6625 0.043v0.2338l3.6625-0.043z" fill="#fff" opacity=".06"/>
   <path d="m123.81 248.68v0.14773h1.8473v-0.14773z" opacity=".16"/>
  </g>
  <text x="131.49092" y="256.18655" fill="#f5f6f5" font-family="Impact" font-size="9.8551px" opacity=".35" stroke-width="6.424" style="line-height:1.25" xml:space="preserve"><tspan x="131.49092" y="256.18655" dx="0" fill="#f5f6f5" letter-spacing=".26px" stroke-width="6.424">ile Link</tspan></text>
 </g>
</svg>
